HIERARCHY
ROOT hip
{
	OFFSET 0.000000 0.000000 0.000000 
	CHANNELS 6 Xposition Yposition Zposition Xrotation Zrotation Yrotation
	JOINT abdomen
	{
		OFFSET 0.000000 3.402643 0.000000 
		CHANNELS 3 Xrotation Zrotation Yrotation
		JOINT chest
		{
			OFFSET 0.000000 8.438565 -0.680529 
			CHANNELS 3 Xrotation Zrotation Yrotation
			JOINT neck
			{
				OFFSET 0.000000 10.207942 -0.272212 
				CHANNELS 3 Xrotation Zrotation Yrotation
				JOINT head
				{
					OFFSET 0.000000 3.130431 0.000000 
					CHANNELS 3 Xrotation Zrotation Yrotation
					End Site
					{
						OFFSET 0.000000 3.130435 0.000000 
					}
				}
			}
			JOINT lCollar
			{
				OFFSET 3.470700 6.669187 -0.816635 
				CHANNELS 3 Yrotation Zrotation Xrotation
				JOINT lShldr
				{
					OFFSET 3.198488 0.000000 0.000000 
					CHANNELS 3 Zrotation Yrotation Xrotation
					JOINT lForeArm
					{
						OFFSET 10.139888 0.000000 0.000000 
						CHANNELS 3 Yrotation Zrotation Xrotation
						JOINT lHand
						{
							OFFSET 8.370511 0.000000 0.000000 
							CHANNELS 3 Zrotation Yrotation Xrotation
							End Site
							{
								OFFSET 4.083176 0.000000 0.000000 
							}
						}
					}
				}
			}
			JOINT rCollar
			{
				OFFSET -3.470700 6.669187 -0.816635 
				CHANNELS 3 Yrotation Zrotation Xrotation
				JOINT rShldr
				{
					OFFSET -3.198488 0.000000 0.000000 
					CHANNELS 3 Zrotation Yrotation Xrotation
					JOINT rForeArm
					{
						OFFSET -10.139888 0.000000 0.000000 
						CHANNELS 3 Yrotation Zrotation Xrotation
						JOINT rHand
						{
							OFFSET -8.370511 0.000000 0.000000 
							CHANNELS 3 Zrotation Yrotation Xrotation
							End Site
							{
								OFFSET -4.083176 0.000000 0.000000 
							}
						}
					}
				}
			}
		}
	}
	JOINT lThigh
	{
		OFFSET 5.308129 -1.633274 1.361059 
		CHANNELS 3 Xrotation Zrotation Yrotation
		JOINT lShin
		{
			OFFSET -2.041588 -20.007561 0.000000 
			CHANNELS 3 Xrotation Zrotation Yrotation
			JOINT lFoot
			{
				OFFSET 0.000000 -19.190928 -1.224953 
				CHANNELS 3 Xrotation Yrotation Zrotation
				End Site
				{
					OFFSET 0.000000 -2.449906 4.627600 
				}
			}
		}
	}
	JOINT rThigh
	{
		OFFSET -5.308129 -1.633274 1.361059 
		CHANNELS 3 Xrotation Zrotation Yrotation
		JOINT rShin
		{
			OFFSET 2.041588 -20.007561 0.000000 
			CHANNELS 3 Xrotation Zrotation Yrotation
			JOINT rFoot
			{
				OFFSET 0.000000 -19.190928 -1.224953 
				CHANNELS 3 Xrotation Yrotation Zrotation
				End Site
				{
					OFFSET 0.000000 -2.449906 4.627600 
				}
			}
		}
	}
}
MOTION
Frames: 6
Frame Time: 0.033333
-0.570137 38.719429 0.098793 -1.250189 -0.995857 80.656494 0.000000 0.000000 0.000000 8.105471 -2.803785 5.596471 26.519499 7.355597 0.421519 -27.861406 -1.743820 3.046102 -18.404678 30.000000 25.000000 -40.748642 -26.296017 -24.922195 -77.369026 -20.731504 -11.443843 -6.699224 4.178579 -61.863613 -2.927471 -6.937932 24.302376 53.472694 0.291309 72.393570 56.132515 -34.099968 -14.378000 -14.634638 12.689198 -87.644035 0.408026 15.395739 22.796621 100.896660 17.519794 0.680379 4.679497 12.074866 8.199772 -11.400511 3.952602 2.686147 58.665813 1.157557 4.720809 -9.702235 -5.311698 29.952793 
-1.095014 38.748123 -0.171255 -1.866406 -2.030173 80.271179 0.000000 0.000000 0.000000 7.598408 -0.803431 6.054810 26.670025 6.637158 0.368341 -28.510899 -3.335170 2.246906 -20.423656 24.591305 25.000000 -65.380028 -3.257586 -18.174824 -85.492737 -38.595547 4.459297 -2.970780 9.252530 -61.175926 -2.019939 -7.972196 24.379578 46.620926 24.206326 64.204315 71.689758 -31.587053 -73.549278 -8.420131 34.732616 -82.276390 -13.122363 15.236383 21.763391 107.554695 19.821306 1.289732 3.230302 15.152185 8.800686 -5.746541 4.019486 2.515813 55.641651 0.427151 4.285573 -13.015863 -5.150779 29.820415 
-1.233551 39.935734 -0.760484 -0.176002 -2.871080 78.807632 0.000000 0.000000 0.000000 6.757827 -0.116373 6.236190 26.809629 3.612597 0.138431 -27.133842 -1.974174 1.878783 -18.775948 16.436331 25.000000 -77.032135 23.736902 -17.545568 -74.009254 -47.993656 27.956829 2.155676 2.415426 -59.921726 0.822994 -12.216013 24.816011 29.714230 44.648129 50.821705 38.701370 -48.614815 -35.027775 -40.695656 -1.449165 -98.266273 -21.273569 10.589821 19.117130 101.883041 18.123131 0.812684 2.242664 13.599669 9.255054 4.863207 1.054763 1.355495 43.159454 -1.217182 2.704063 -11.509147 -1.631492 30.543917 
-0.899260 41.763031 -1.406137 2.865690 -3.160114 77.907997 0.000000 0.000000 0.000000 5.743524 -1.234010 6.028054 27.034060 0.751875 -0.070692 -26.027037 -0.522313 1.278675 -16.042719 9.487484 25.000000 -83.222237 43.238819 -20.926502 -49.695259 -48.855732 46.287132 3.251460 -9.463501 -59.939636 2.207236 -17.727613 25.000000 0.515159 54.756252 31.262022 7.289872 -51.734943 -58.945946 -32.500874 -9.197137 -93.112839 -23.313845 3.932394 16.743219 85.459587 13.651364 -0.189996 4.041866 13.604606 8.694651 19.186329 -5.311751 -0.721956 22.789042 1.952190 1.436808 -3.045910 1.297561 28.947735 
0.107333 43.972160 -1.889688 4.072457 0.555235 78.535721 0.000000 0.000000 0.000000 8.812150 -1.621269 5.832507 26.608593 -2.409662 -0.296376 -22.344082 0.251262 -1.107690 -13.711875 7.441110 25.000000 -90.627823 58.073658 -28.825062 -18.531691 -45.507607 50.403324 -5.653843 -8.049161 -58.456768 0.435858 -26.756495 24.415565 -32.620937 52.182930 18.073967 -28.708775 -34.880260 -99.169853 -6.603322 3.690260 -85.398445 -14.129685 -2.041241 15.936807 57.057293 11.207213 -0.012417 0.656568 4.772115 10.113707 37.428772 -10.683186 -2.350115 8.298147 7.116080 1.354682 2.912759 -6.059781 13.314094 
0.416744 44.461849 -1.837034 2.793268 0.838846 78.058647 0.000000 0.000000 0.000000 9.728270 -1.068401 5.920208 25.248297 -3.170225 -0.346345 -22.394875 0.661313 -0.387524 -13.277448 8.155820 25.000000 -94.844620 62.973225 -37.463810 -10.178362 -45.594807 59.504322 -6.560753 -7.099009 -58.441017 -0.720408 -28.142962 23.812311 -43.953594 47.471539 19.745121 -31.122864 -24.103996 -107.573967 -4.920477 4.660941 -85.052826 -10.694366 -0.920636 16.492863 39.484753 8.495702 0.230038 -1.827528 -4.304233 10.592071 38.595100 -10.310203 -2.231729 15.965363 6.889602 1.943601 5.946933 -11.664865 10.977625 
